<svg width="149" height="40" viewBox="0 0 149 40" fill="none" xmlns="http://www.w3.org/2000/svg">
<path d="M11.1974 19.3503L12.8269 20.2245C17.7854 22.6344 22.9302 24.4536 22.9302 30.2658C22.9302 35.2983 19.1822 40 11.8259 40C7.30972 40 4.88867 38.2989 1.37348 37.7318L0 24.5954L0.349191 24.5481C2.42106 36.4324 9.8239 38.0862 13.9909 38.0862C19.3684 38.0862 21.0911 35.4637 21.0911 32.5812C21.0911 27.9031 16.2723 25.9421 11.7095 23.7685L9.89374 22.847C5.84312 20.886 1.32692 18.925 1.32692 13.231C1.32692 7.53692 6.02936 4.27643 11.2672 4.27643C14.666 4.27643 17.6458 5.55227 19.4848 7.2534L20.998 4.32369H21.3472V17.2947H21.0446C19.0658 10.3957 15.1549 6.16657 9.07896 6.16657C5.58705 6.16657 2.9332 7.86769 2.9332 11.1991C2.9332 15.2156 6.93725 17.2239 11.1974 19.3266V19.3503Z" fill="white"/>
<path d="M44.6731 35.3692L44.8826 35.7236C41.8796 38.1335 39.2025 39.8346 37.7359 39.8346C31.497 39.8346 26.3755 35.5109 26.3755 26.769C26.3755 15.4519 34.9423 11.7897 37.1306 11.7897C42.6478 11.7897 44.5335 15.2865 44.58 20.3898C44.58 21.3113 41.3907 23.3668 40.6225 23.3668H29.1225V23.7685C29.1225 32.0614 33.2895 37.2593 39.6681 37.2593C41.8563 37.2593 43.16 36.3379 44.6964 35.3455L44.6731 35.3692ZM35.9899 14.0106C33.3128 14.0106 29.5415 15.4046 29.1458 22.4454H41.3675C41.7632 16.5151 39.0861 14.0106 35.9899 14.0106Z" fill="white"/>
<path d="M53.8219 37.7318L58.245 39.0077V39.3148H46.1863V39.0077L50.6094 37.7318V2.4808L45.6974 2.43355V2.1264L53.5659 0.330774H53.8685V37.7555L53.8219 37.7318Z" fill="white"/>
<path d="M80.7562 37.7318L85.1792 39.0077V39.3148H73.0507V39.0077L77.4738 37.7318V14.0579C74.075 13.8925 69.163 13.5854 66.7653 13.3963L66.7187 37.7318L72.492 39.0077V39.3148H59.0598V39.0077L63.5294 37.7318V13.4908L59.1063 12.7112V12.404H63.4596L63.3665 9.99409C63.0173 1.96102 70.2572 0 72.7015 0C77.823 0 80.3604 2.00827 81.5709 4.11105L78.9869 8.60012L78.7309 8.43473C79.0335 4.5127 75.4252 1.84288 71.3746 1.84288C67.8361 1.84288 65.2288 4.11105 65.2288 7.20614C65.2288 9.61607 66.4859 11.6952 66.742 12.404L80.7329 12.4513V37.7318H80.7562Z" fill="white"/>
<path d="M104.501 35.3692L104.711 35.7236C101.708 38.1335 99.0305 39.8346 97.5639 39.8346C91.325 39.8346 86.2035 35.5109 86.2035 26.769C86.2035 15.4519 94.7704 11.7897 96.9586 11.7897C102.476 11.7897 104.361 15.2865 104.408 20.3898C104.408 21.3113 101.219 23.3668 100.451 23.3668H88.9505V23.7685C88.9505 32.0614 93.1175 37.2593 99.4961 37.2593C101.684 37.2593 102.988 36.3379 104.524 35.3455L104.501 35.3692ZM95.8179 14.0106C93.1408 14.0106 89.3695 15.4046 88.9738 22.4454H101.195C101.591 16.5151 98.9141 14.0106 95.8179 14.0106Z" fill="white"/>
<path d="M128.456 20.5789L128.502 37.7082L132.925 38.984V39.2912H120.867V38.984L125.29 37.7082V20.6261C125.29 16.3969 122.706 14.554 119.959 14.554C118.026 14.554 116.211 16.3024 114.837 18.1453V37.7082L119.26 38.984V39.2912H107.132V38.984L111.555 37.7082V14.6722L105.781 17.909L105.619 17.6491C107.9 15.6409 110.484 11.8842 112.16 11.8842C112.928 11.8842 113.836 12.1441 114.651 16.9876C117.444 13.6326 120.028 12.0024 120.936 12.0024C124.894 12.0024 128.502 13.8452 128.502 20.6025L128.456 20.5789Z" fill="white"/>
<path d="M147.126 35.3692L147.335 35.6291C145.1 37.9917 142.051 39.8582 141.096 39.8582C138.466 39.8582 136.836 38.0154 136.836 34.4005L136.79 13.5145L132.623 12.7348V12.4276H136.883L139.932 6.66273H140.142L140.049 12.4276H146.939V14.176C146.078 14.176 143.075 13.7744 140.049 13.4672V34.2587C140.049 36.4087 141.003 37.5428 143.098 37.5428C144.216 37.5428 145.17 37.2357 147.149 35.3928L147.126 35.3692Z" fill="white"/>
</svg>
