<svg preserveAspectRatio="xMidYMid meet" data-bbox="0.017 18.655 584.453 275.145" viewBox="0.017 18.655 584.453 275.145" xmlns="http://www.w3.org/2000/svg" data-type="color" role="img" aria-label="Timebeat Logo">
    <g>
        <path d="M301.99 39.13h-40.46v112.2h-16.51V39.13h-40.37V25.57h97.33v13.56Z" fill="#000000" data-color="1"></path>
        <path d="M332.09 151.32h-16.6V25.57h16.6v125.76Z" fill="#000000" data-color="1"></path>
        <path d="m377.5 25.57 41.15 102.61L459.8 25.57h21.52v125.76h-16.6v-48.97l1.56-52.86-41.32 101.83h-12.71L371.02 49.76l1.64 52.6v48.97h-16.6V25.57h21.44Z" fill="#000000" data-color="1"></path>
        <path d="M575.39 93.19h-54.54v44.57h63.36v13.56h-79.96V25.57h79.09v13.56h-62.5v40.51h54.54V93.2Z" fill="#000000" data-color="1"></path>
        <path d="M217.7 293.79V168.03h33.11c13.54 0 23.79 2.75 30.73 8.25 6.94 5.5 10.42 13.49 10.42 23.97 0 7.6-1.93 13.91-5.79 18.92-3.86 5.01-9.31 8.21-16.34 9.59 7.95 1.04 14.58 4.48 19.88 10.32 5.3 5.85 7.95 12.54 7.95 20.08 0 10.71-3.47 19.16-10.42 25.35-6.95 6.19-16.61 9.29-29 9.29H217.7Zm4.67-66.77h30.17c11.47 0 20.11-2.2 25.93-6.61 5.82-4.4 8.73-11.24 8.73-20.51 0-17.85-11.79-26.92-35.35-27.21h-29.48v54.33Zm0 4.66v57.44h36.39c10.66 0 19.03-2.63 25.11-7.9 6.08-5.27 9.12-12.57 9.12-21.89 0-7.95-2.94-14.5-8.82-19.65s-13.74-7.82-23.6-7.99h-38.21Z" fill="#000000" data-color="1"></path>
        <path d="M385.86 231.43h-63.1v57.7h71.92v4.66h-76.59V168.03h76.59v4.66h-71.92v54.07h63.1v4.66Z" fill="#000000" data-color="1"></path>
        <path d="M478.81 256.22h-61.63l-14 37.57h-5.1l47.11-125.76h5.71l47.11 125.76h-5.1l-14.09-37.57Zm-59.9-4.66h58.18l-29.04-77.91-29.13 77.91Z" fill="#000000" data-color="1"></path>
        <path d="M584.46 172.7h-45.81v121.09h-4.67V172.7h-45.81v-4.66h96.3v4.66Z" fill="#000000" data-color="1"></path>
        <path d="M19.67 18.7c-1.14-.3.41.94 2.85 2.66-.76-1.26-1.74-2.37-2.85-2.66Z" fill="#000000" data-color="1"></path>
        <path d="M145.36 18.7c-1.11.29-2.09 1.4-2.85 2.66 2.45-1.72 3.99-2.96 2.85-2.66Z" fill="#000000" data-color="1"></path>
        <path fill="#000000" d="M59.75 85.22a5.74 5.74 0 1 1-11.48 0 5.74 5.74 0 0 1 11.48 0z" data-color="1"></path>
        <path fill="#000000" d="M116.76 85.22a5.74 5.74 0 1 1-11.48 0 5.74 5.74 0 0 1 11.48 0z" data-color="1"></path>
        <path d="M158.69 144.93c-.56-9.54-4.91-16.95-6.26-19.05.28-.57.68-1.49 1.26-2.93 2.67-6.66.83-14.49-1.83-25.31 2.83-17.82-9-29.48-10.5-31.14-1.5-1.67.17-5.33.17-5.33s-1.83-12.66 5.33-16.99c7.17-4.33 8.33-5.99 8.33-5.99s-7.5-.67-9.17 0 5.5-7.16 5.5-10.49c-2.5 1.83-3.5 2.16-4.83 3.83-1.33 1.66 3.33-8.66 3.33-9.99s-7.42 2.83-8.71 4.16c-.84.87-.22-2 1.19-4.33-4.38 3.07-11.65 7.66-11.65 7.66s-10.33 8.16-10.83 12.49-15 .33-19-.33c-4-.67-15.83-2-18.5-2.16v1.92-1.92c-2.67.17-14.5 1.5-18.5 2.16-4 .67-18.5 4.66-19 .33S34.19 29.03 34.19 29.03s-7.27-4.59-11.65-7.66c1.41 2.34 2.03 5.2 1.19 4.33-1.29-1.33-8.71-5.5-8.71-4.16s4.67 11.66 3.33 9.99c-1.33-1.67-2.33-2-4.83-3.83 0 3.33 7.17 11.16 5.5 10.49-1.67-.67-9.17 0-9.17 0s1.17 1.67 8.33 5.99c7.17 4.33 5.33 16.99 5.33 16.99s1.67 3.66.17 5.33-13.33 13.32-10.5 31.14c-2.67 10.82-4.5 18.65-1.83 25.31.58 1.44.98 2.36 1.26 2.93-1.36 2.1-5.7 9.51-6.26 19.05 0 0-6.5 9.49-6.33 17.32.17 7.83 15.83 46.13 22.83 55.45 7 9.32 7.67 22.31 13.67 21.81s8.33 11.49 11.83 18.32 12.17 23.65 14.5 25.15 4.67 4.5 3.5 0 3.5 6.16 6.17 7.49 3.5 2.33 1.67-5.16 3.83 4.66 3.83 4.66 3.33 5.16 4.5 2.17v-.04.04c1.17 3 4.5-2.17 4.5-2.17s5.67-12.16 3.83-4.66c-1.83 7.49-1 6.5 1.67 5.16s7.33-11.99 6.17-7.49c-1.17 4.5 1.17 1.5 3.5 0s11-18.32 14.5-25.15c3.5-6.83 5.83-18.82 11.83-18.32s6.67-12.49 13.67-21.81c7-9.33 22.67-47.63 22.83-55.45.17-7.83-6.33-17.32-6.33-17.32ZM46.47 227.74c-.87 1.25 0 6.5 0 9.87s-2.5-2.37-4.5-7.99 0-6.62 0-6.62c5.63-3 5.38 3.5 4.5 4.74Zm7.07-1.36c-.98 1.39 0 7.24 0 11s-2.79-2.64-5.02-8.91c-2.23-6.26 0-7.38 0-7.38 6.27-3.34 5.99 3.9 5.02 5.29Zm7.52 4.11c-2 5.62-4.5 11.37-4.5 7.99s.88-8.62 0-9.87-1.13-7.74 4.5-4.74c0 0 2 1 0 6.62Zm5.53-127.35c-5.74 8.62-18.58 10.15-28.7 3.43-10.12-6.72-13.67-19.16-7.94-27.77 2.33-3.51 5.85-5.84 9.88-6.92C47 74.17 58.71 78.5 66.91 84.44c3.21 6.14 3.35 13.2-.32 18.71Zm15.03 39.47v3.98c1.17.82 1.17 1.6 0 2.35v-2.35c1.09-.8 1.01-1.62.9-2.47-.11.85-.19 1.67.39 2.47v2.35c-.67-.75-.66-1.53 0-2.35v-3.98C80.04 129.69 71 112.72 71 112.72l11.91-11.51v-.48l-.39.24-.9-.24v.48l12.42 11.51s-9.05 16.97-12.42 29.89Zm26.85 86.01c-.87 1.25 0 6.5 0 9.87s-2.5-2.37-4.5-7.99 0-6.62 0-6.62c5.63-3 5.38 3.5 4.5 4.74Zm8.03-.15c-2.23 6.26-5.01 12.67-5.01 8.91s.98-9.61 0-11c-.98-1.39-1.26-8.63 5.01-5.29 0 0 2.23 1.11 0 7.38Zm6.56 1.15c-2 5.62-4.5 11.37-4.5 7.99s.88-8.62 0-9.87c-.87-1.25-1.12-7.74 4.5-4.74 0 0 2 1 0 6.62Zm4.09-123.05c-10.12 6.72-22.97 5.19-28.7-3.43-3.66-5.51-3.53-12.57-.32-18.71 8.2-5.94 19.91-10.26 27.07-12.56 4.03 1.08 7.55 3.41 9.88 6.92 5.73 8.62 2.18 21.05-7.94 27.77Z" fill="#000000" data-color="1"></path>
    </g>
</svg>