<svg xmlns="http://www.w3.org/2000/svg" xmlns:xlink="http://www.w3.org/1999/xlink" version="1.1" id="Layer_1" x="0px" y="0px" viewBox="0 0 1084.8 345.6" style="enable-background:new 0 0 1084.8 345.6;" xml:space="preserve">
<style type="text/css">
	.st0{fill:#0E6FFF;}
	.st1{fill:#FFFFFF;}
</style>
<g>
	<g>
		<path d="M346.2,182.2h1.5c5.1-0.1,10.1-0.8,14.9-2.3c5.1-1.6,9.5-4,13.1-7.2l-6.5-13.2c-5.3,4.6-12.1,7-20.2,7    c-7.6,0-13.4-2.2-17.5-6.5c-4-4.3-6.1-10.4-6.1-18.3V60.5h41.3V45.2h-41.3V0h-18.3v142.7c0,12.6,3.4,22.3,10.3,29.2    C324.3,178.6,333.9,182.1,346.2,182.2L346.2,182.2z"/>
		<path d="M413.6,66.3v-21H396v135.7h18.3v-69.2c0-16,4-28.4,12.1-37.1c8.1-8.7,19.3-13,33.6-13c0.7,0,1.4,0.1,2.1,0.1    c0.7,0.1,1.4,0.1,2.1,0.1V44c-13.3,0-24.4,2.7-33.3,8.1C423.2,56.7,423.1,57.1,413.6,66.3L413.6,66.3z"/>
		<path d="M591.7,156.1V181h17.6V45.3h-18.3v71.1h0c0,10.3-1.9,19.2-5.5,26.6c-3.7,7.4-9,13-16,16.9c-7,3.9-15.2,5.8-24.7,5.8    c-12.9,0-22.9-3.7-30.1-11c-7.2-7.3-10.7-18.2-10.7-32.7V45.2h-18.3v78.8c0,12.9,2.4,23.7,7.1,32.3c4.7,8.6,11.4,15.1,20,19.4    c8.6,4.3,18.7,6.5,30.2,6.5c11.6,0,22.6-2.8,31.7-8.4C581.8,169.3,587.5,163.4,591.7,156.1L591.7,156.1z"/>
		<path d="M714.2,177.5c8.3-3.2,14.7-7.7,19.1-13.4c4.4-5.8,6.6-12.6,6.6-20.5c0-7.4-1.6-13.4-4.8-18c-3.2-4.5-7.4-8.1-12.7-10.6    v-0.1c-5.2-2.5-11-4.5-17.3-5.9c-6.3-1.5-12.6-2.7-18.9-3.7c-6.3-1-12-2.4-17.3-4c-5.3-1.6-9.5-3.9-12.7-6.8    c-3.2-2.9-4.8-7-4.8-12.1c0-6.6,2.9-11.9,8.7-16.2c5.8-4.2,14.8-6.3,27-6.3c6.9,0,13.8,0.9,20.7,2.7c6.9,1.8,13.4,4.8,19.4,8.9    l8-14.7c-5.7-3.8-12.9-6.8-21.7-9.2c-8.8-2.3-17.6-3.5-26.3-3.5c-11.5,0-21.3,1.7-29.3,5c-8,3.3-14.1,8-18.2,13.8    c-4.1,5.9-6.2,12.5-6.2,19.9s1.6,14,4.8,18.6c3.2,4.6,7.4,8.3,12.5,11c5.1,2.7,10.9,4.7,17.2,6.1s12.6,2.6,19,3.6    c6.4,1,12.1,2.3,17.3,3.7c5.2,1.5,9.3,3.6,12.5,6.5c3.2,2.8,4.8,6.8,4.8,11.8c0,6.7-2.8,12.1-8.5,16.2c-5.7,4-15,6.1-27.9,6.1    c-9.5,0-18.5-1.5-27.1-4.5c-8.6-3-15.7-6.6-21.2-10.7l-8.3,14.5c5.7,4.8,13.5,8.9,23.5,12c9.1,2.9,18.7,4.5,28.8,4.7h6.1    C697.5,182,706.6,180.4,714.2,177.5L714.2,177.5z"/>
		<path d="M774.1,171.9c6.7,6.8,16.3,10.2,28.7,10.3h1.5c5.1-0.1,10-0.8,14.9-2.3c5.1-1.6,9.5-4,13.1-7.2l-6.5-13.2    c-5.3,4.6-12,7-20.1,7h-0.1c-7.6,0-13.4-2.2-17.5-6.5c-4-4.3-6.1-10.4-6.1-18.3V60.5h41.3V45.2h-41.3V0h-18.3v142.7    C763.7,155.3,767.2,165,774.1,171.9L774.1,171.9z"/>
		<path d="M908.6,0h-25.8v180.9h25.8V0z"/>
		<path d="M936.8,158.5v22.5h25.8l24.6,0c19.3,0,36.3-3.8,51-11.4c14.7-7.6,26.2-18.2,34.4-31.8c8.2-13.6,12.2-29.4,12.2-47.3    c0-18-4.1-33.7-12.2-47.3c-8.2-13.6-19.6-24.2-34.4-31.8c-14.7-7.6-31.7-11.4-51-11.4h-50.4V158.5L936.8,158.5z M962.6,22.5h23    c15,0,28,2.8,38.9,8.5c10.9,5.7,19.4,13.6,25.4,23.8c6.1,10.2,9,22.1,9,35.7s-3,25.3-9,35.5c-6,10.2-14.5,18.2-25.4,23.9    c-10.9,5.7-23.9,8.5-38.9,8.5h-23V22.5z"/>
	</g>
	<g>
		<path d="M307.2,344.5V194.8h14.3v75.1l-2,21.4l1.4,21.4v31.9L307.2,344.5L307.2,344.5z M361.9,345.5c-9.3,0-17.6-2.1-25-6.3    c-7.4-4.2-13.3-10.4-17.5-18.5c-4.3-8.1-6.5-17.8-6.5-29.3s2.2-21.3,6.6-29.4c4.4-8,10.3-14.1,17.7-18.3    c7.4-4.2,15.7-6.3,24.8-6.3c10.1,0,19.1,2.3,27.1,6.8c8,4.5,14.3,10.8,18.9,18.9c4.6,8.1,6.9,17.5,6.9,28.3    c0,10.8-2.3,20-6.9,28.1c-4.6,8.1-10.9,14.5-18.9,19.1C381,343.3,371.9,345.6,361.9,345.5L361.9,345.5z M360.8,332.8    c7.5,0,14.2-1.7,20.2-5.1c5.9-3.4,10.6-8.3,14.1-14.5c3.5-6.3,5.3-13.5,5.3-21.7c0-8.2-1.7-15.6-5.3-21.8    c-3.5-6.2-8.2-11-14.1-14.4c-5.9-3.4-12.6-5.1-20.2-5.1c-7.5,0-14.3,1.7-20.3,5.1c-6,3.4-10.7,8.2-14.1,14.4    c-3.4,6.2-5.1,13.4-5.1,21.8c0,8.3,1.7,15.4,5.1,21.7c3.4,6.3,8.1,11.1,14.1,14.5C346.6,331.1,353.3,332.8,360.8,332.8z"/>
		<path d="M477.7,345.5c-9,0-16.9-1.7-23.6-5c-6.7-3.4-11.9-8.4-15.6-15.1c-3.7-6.7-5.5-15.1-5.5-25.2v-61.5h14.3v59.9    c0,11.3,2.8,19.8,8.4,25.5c5.6,5.7,13.4,8.6,23.5,8.6c7.4,0,13.8-1.5,19.3-4.5c5.4-3,9.6-7.4,12.5-13.2c2.9-5.8,4.3-12.7,4.3-20.8    v-55.5h14.3v105.9h-13.7v-29.1l2.2,5.3c-3.4,7.8-8.6,13.9-15.6,18.3C495.3,343.3,487.1,345.5,477.7,345.5L477.7,345.5z"/>
		<path d="M587.8,345.5c-8.7,0-17-1.2-24.8-3.7c-7.8-2.5-13.9-5.6-18.4-9.4l6.5-11.3c4.3,3.2,9.8,6,16.5,8.4s13.8,3.5,21.2,3.5    c10.1,0,17.3-1.6,21.8-4.7c4.4-3.2,6.7-7.4,6.7-12.6c0-3.9-1.2-7-3.7-9.2c-2.5-2.2-5.8-3.9-9.8-5c-4-1.1-8.5-2.1-13.5-2.9    c-5-0.8-9.9-1.7-14.8-2.8c-4.9-1.1-9.4-2.6-13.4-4.7c-4-2.1-7.3-4.9-9.8-8.6c-2.5-3.6-3.7-8.5-3.7-14.5c0-6,1.6-11,4.8-15.5    c3.2-4.6,8-8.2,14.2-10.8c6.3-2.6,13.9-3.9,22.9-3.9c6.9,0,13.7,0.9,20.6,2.7c6.9,1.8,12.5,4.2,17,7.2l-6.2,11.5    c-4.7-3.2-9.8-5.5-15.1-7c-5.4-1.4-10.8-2.1-16.2-2.1c-9.5,0-16.6,1.6-21.1,4.9c-4.5,3.3-6.8,7.5-6.8,12.6c0,4,1.2,7.2,3.7,9.5    c2.5,2.3,5.8,4.1,9.9,5.4c4.1,1.3,8.6,2.3,13.5,3.1c4.9,0.8,9.8,1.8,14.7,2.9c4.9,1.2,9.4,2.7,13.5,4.6c4.1,2,7.4,4.7,9.9,8.3    c2.5,3.6,3.7,8.2,3.7,14c0,6.2-1.7,11.5-5.1,16c-3.4,4.5-8.4,8-14.9,10.5C605,344.3,597.1,345.6,587.8,345.5L587.8,345.5z"/>
		<path d="M655,215.2c-3,0-5.4-1-7.5-3c-2-2-3-4.4-3-7.3c0-2.8,1-5.2,3-7.2c2-2,4.5-2.9,7.5-2.9c3,0,5.4,0.9,7.5,2.8s3,4.2,3,7.1    c0,2.8-1,5.4-2.9,7.5C660.6,214.1,658.1,215.2,655,215.2L655,215.2z M647.7,344.5V238.6H662v105.9H647.7z"/>
		<path d="M684.2,344.5V238.6h13.7v29.1l-2.2-5.4c3.3-7.7,8.7-13.7,16.1-18.1c7.4-4.4,16.2-6.6,26.4-6.6c8.6,0,16.2,1.6,22.7,4.9    c6.5,3.3,11.6,8.3,15.3,15c3.7,6.7,5.5,15.2,5.5,25.4v61.5h-14.3v-60.1c0-11.2-2.8-19.6-8.4-25.3c-5.6-5.7-13.4-8.6-23.5-8.6    c-7.5,0-14.1,1.5-19.7,4.5c-5.6,3-9.9,7.4-12.9,13.1c-3,5.7-4.5,12.6-4.5,20.7v55.7L684.2,344.5L684.2,344.5z"/>
		<path d="M851.7,345.5c-11,0-20.7-2.3-29.1-7c-8.3-4.6-14.9-11-19.6-19.2S796,302,796,291.5c0-10.5,2.2-19.8,6.8-27.9    c4.5-8.1,10.7-14.4,18.6-19.1c7.9-4.6,16.7-7,26.5-7c9.8,0,18.8,2.3,26.5,6.8c7.7,4.5,13.8,10.8,18.3,19    c4.4,8.1,6.7,17.5,6.7,28.1c0,0.7,0,1.4-0.1,2.1c-0.1,0.7-0.1,1.5-0.1,2.3h-92.2v-10.7h84.5l-5.7,4.2c0-7.7-1.7-14.5-5-20.5    c-3.3-6-7.8-10.7-13.4-14c-5.7-3.4-12.2-5-19.6-5c-7.4,0-13.8,1.7-19.6,5c-5.8,3.4-10.3,8.1-13.5,14.1c-3.2,6.1-4.8,13-4.8,20.8    v2.2c0,8.1,1.8,15.2,5.4,21.3c3.6,6.1,8.5,10.9,14.9,14.3c6.4,3.4,13.7,5.1,21.9,5.1c6.5,0,12.5-1.1,18.1-3.4    c5.6-2.3,10.4-5.8,14.4-10.5l8.1,9.3c-4.7,5.7-10.6,10-17.7,12.9C867.9,344,860.1,345.5,851.7,345.5L851.7,345.5z"/>
		<path d="M946.9,345.5c-8.7,0-17-1.2-24.8-3.7c-7.8-2.5-13.9-5.6-18.4-9.4l6.5-11.3c4.3,3.2,9.8,6,16.6,8.4s13.8,3.5,21.2,3.5    c10.1,0,17.4-1.6,21.8-4.7c4.4-3.2,6.7-7.4,6.7-12.6c0-3.9-1.2-7-3.7-9.2c-2.5-2.2-5.8-3.9-9.8-5c-4-1.1-8.5-2.1-13.5-2.9    c-5-0.8-9.9-1.7-14.8-2.8c-4.9-1.1-9.4-2.6-13.4-4.7c-4-2.1-7.3-4.9-9.8-8.6c-2.5-3.6-3.7-8.5-3.7-14.5c0-6,1.6-11,4.9-15.5    c3.2-4.6,8-8.2,14.2-10.8c6.2-2.6,13.9-3.9,22.9-3.9c6.9,0,13.7,0.9,20.6,2.7c6.9,1.8,12.5,4.2,17,7.2l-6.3,11.5    c-4.7-3.2-9.8-5.5-15.1-7c-5.4-1.4-10.8-2.1-16.1-2.1c-9.6,0-16.6,1.6-21.1,4.9c-4.5,3.3-6.8,7.5-6.8,12.6c0,4,1.2,7.2,3.7,9.5    c2.5,2.3,5.8,4.1,9.9,5.4c4.1,1.3,8.6,2.3,13.5,3.1c4.9,0.8,9.8,1.8,14.7,2.9c4.9,1.2,9.4,2.7,13.5,4.6c4.1,2,7.4,4.7,9.9,8.3    c2.5,3.6,3.7,8.2,3.7,14c0,6.2-1.7,11.5-5.1,16c-3.4,4.5-8.4,8-14.9,10.5C964.1,344.3,956.2,345.6,946.9,345.5L946.9,345.5z"/>
		<path d="M1041,345.5c-8.7,0-17-1.2-24.8-3.7c-7.8-2.5-13.9-5.6-18.4-9.4l6.5-11.3c4.3,3.2,9.8,6,16.5,8.4    c6.7,2.4,13.8,3.5,21.2,3.5c10.1,0,17.3-1.6,21.8-4.7c4.4-3.2,6.7-7.4,6.7-12.6c0-3.9-1.2-7-3.7-9.2c-2.5-2.2-5.8-3.9-9.8-5    c-4-1.1-8.5-2.1-13.5-2.9c-5-0.8-9.9-1.7-14.8-2.8c-4.9-1.1-9.4-2.6-13.4-4.7c-4-2.1-7.3-4.9-9.8-8.6c-2.5-3.6-3.7-8.5-3.7-14.5    c0-6,1.6-11,4.8-15.5c3.2-4.6,8-8.2,14.2-10.8c6.3-2.6,13.9-3.9,22.9-3.9c6.9,0,13.7,0.9,20.6,2.7c6.9,1.8,12.5,4.2,17,7.2    l-6.2,11.5c-4.7-3.2-9.8-5.5-15.1-7c-5.4-1.4-10.8-2.1-16.2-2.1c-9.5,0-16.6,1.6-21.1,4.9c-4.5,3.3-6.7,7.5-6.7,12.6    c0,4,1.2,7.2,3.7,9.5c2.5,2.3,5.8,4.1,9.9,5.4c4.1,1.3,8.6,2.3,13.5,3.1c4.9,0.8,9.8,1.8,14.7,2.9c4.9,1.2,9.4,2.7,13.5,4.6    c4.1,2,7.4,4.7,9.9,8.3c2.5,3.6,3.7,8.2,3.7,14c0,6.2-1.7,11.5-5.1,16c-3.4,4.5-8.4,8-14.9,10.5    C1058.2,344.3,1050.3,345.6,1041,345.5L1041,345.5z"/>
	</g>
	<g>
		<path class="st0" d="M118,290.6c65.2,0,118-52.8,118-118c0-65.2-52.8-118-118-118c-65.2,0-118,52.8-118,118    C0,237.8,52.8,290.6,118,290.6z"/>
		<path class="st1" d="M64.6,162.6v38.4c0,24.4,21.8,46.4,53,53.4l0.4,0.1l0.4-0.1c31.2-7,53-28.9,53-53.4v-55.3H64.6L64.6,162.6    L64.6,162.6z M154.5,200.9c0,16.5-14.7,30.5-36.5,36.6c-21.9-6.1-36.5-20-36.5-36.6v-38.4h73L118,198.9l-15.7-15.7l-11.9,12    l15.7,15.7l11.9,12l11.9-12l24.5-24.5V200.9z"/>
		<path class="st1" d="M154.5,128.9h1.8h15.1v-15.1V112h-16.9V128.9z"/>
		<path class="st1" d="M137.6,112h-73v1.8v15.1h73V112z"/>
	</g>
</g>
</svg>